<svg width="72" height="72" viewBox="0 0 72 72" fill="none" xmlns="http://www.w3.org/2000/svg">
<path d="M29 42C36.9968 42 43.5 35.721 43.5 28C43.5 20.279 36.9968 14 29 14C21.0032 14 14.5 20.279 14.5 28C14.5 35.721 21.0032 42 29 42ZM29 21C32.9984 21 36.25 24.1395 36.25 28C36.25 31.8605 32.9984 35 29 35C25.0016 35 21.75 31.8605 21.75 28C21.75 24.1395 25.0016 21 29 21Z" fill="white"/>
<path d="M26.9338 70.3403C27.5367 70.7693 28.2591 71 29 71C29.7409 71 30.4633 70.7693 31.0662 70.3403C32.1492 69.577 57.603 51.2624 57.4997 28.4002C57.4997 12.7411 44.714 0 29 0C13.286 0 0.500314 12.7411 0.500314 28.3825C0.397002 51.2624 25.8508 69.577 26.9338 70.3403ZM29 7.10006C40.7882 7.10006 50.3748 16.6532 50.3748 28.418C50.4496 44.173 34.7427 58.3199 29 62.9598C23.2609 58.3163 7.55042 44.1659 7.62524 28.4002C7.62524 16.6532 17.2118 7.10006 29 7.10006Z" fill="white"/>
</svg>
